<svg xmlns="http://www.w3.org/2000/svg" fill="none" viewBox="0 0 56 80" height="80" width="56">
<g clip-path="url(#clip0_44_37212)">
<path fill="#50000B" d="M11.8459 43.123V41.95H18.1364V43.123H15.6524V50H14.3299V43.123H11.8459Z"></path>
<path fill="#50000B" d="M19.1015 50V41.95H20.424V45.331H24.1615V41.95H25.484V50H24.1615V46.504H20.424V50H19.1015Z"></path>
<path fill="#50000B" d="M26.9516 50V41.95H28.2741V50H26.9516Z"></path>
<path fill="#50000B" d="M29.7479 50V41.95H32.9219C34.6009 41.95 35.7279 42.9505 35.7279 44.5145C35.7279 45.5955 35.1069 46.458 34.1639 46.7915L35.8659 50H34.3939L32.8414 47.079H31.0704V50H29.7479ZM32.8184 43.1H31.0704V45.929H32.8184C33.7614 45.929 34.3709 45.377 34.3709 44.5145C34.3709 43.652 33.7614 43.1 32.8184 43.1Z"></path>
<path fill="#50000B" d="M39.65 50H36.913V41.95H39.65C42.1685 41.95 43.7555 43.5715 43.7555 45.9635C43.7555 48.3555 42.1685 50 39.65 50ZM38.2355 43.1V48.85H39.65C41.421 48.85 42.3985 47.6885 42.3985 45.9635C42.3985 44.2385 41.421 43.1 39.65 43.1H38.2355Z"></path>
<path fill="#50000B" d="M11.2064 61V52.95H14.3804C16.0594 52.95 17.1634 53.9505 17.1634 55.5145C17.1634 57.067 16.0594 58.079 14.3804 58.079H12.5289V61H11.2064ZM14.2769 54.1H12.5289V56.929H14.2654C15.2084 56.929 15.8179 56.377 15.8179 55.5145C15.8179 54.6405 15.2199 54.1 14.2769 54.1Z"></path>
<path fill="#50000B" d="M18.0066 61H16.6381L19.6511 52.95H21.2266L24.2281 61H22.8136L22.0546 59.0105H18.7541L18.0066 61ZM20.3986 54.376L19.1221 57.8835H21.6866L20.3986 54.376Z"></path>
<path fill="#50000B" d="M25.0536 61V52.95H28.2276C29.9066 52.95 31.0336 53.9505 31.0336 55.5145C31.0336 56.5955 30.4126 57.458 29.4696 57.7915L31.1716 61H29.6996L28.1471 58.079H26.3761V61H25.0536ZM28.1241 54.1H26.3761V56.929H28.1241C29.0671 56.929 29.6766 56.377 29.6766 55.5145C29.6766 54.652 29.0671 54.1 28.1241 54.1Z"></path>
<path fill="#50000B" d="M31.3308 54.123V52.95H37.6213V54.123H35.1373V61H33.8148V54.123H31.3308Z"></path>
<path fill="#50000B" d="M40.943 58.0215L37.9415 52.95H39.494L41.61 56.63L43.7835 52.95H45.267L42.2655 58.0215V61H40.943V58.0215Z"></path>
<path fill="#50000B" d="M7.52783 65.123V63.95H13.8183V65.123H11.3343V72H10.0118V65.123H7.52783Z"></path>
<path fill="#50000B" d="M14.7833 72V63.95H20.0388V65.123H16.1058V67.354H19.3488V68.4925H16.1058V70.827H20.1768V72H14.7833Z"></path>
<path fill="#50000B" d="M20.9413 69.355L22.2753 69.378C22.3443 70.321 23.0803 70.9535 24.2073 70.9535C25.1618 70.9535 25.8518 70.528 25.8518 69.7575C25.8518 68.9065 25.0123 68.7225 23.7358 68.4925C22.4018 68.2625 21.1368 67.837 21.1368 66.2385C21.1368 64.8355 22.2868 63.881 24.0003 63.881C25.8403 63.881 26.9903 64.8815 27.0478 66.365H25.7253C25.6218 65.5485 24.9778 64.9965 24.0003 64.9965C23.0918 64.9965 22.4593 65.3875 22.4593 66.1465C22.4593 66.9745 23.2873 67.147 24.5523 67.3655C25.8863 67.607 27.1858 68.0325 27.1743 69.6195C27.1743 71.0685 25.9668 72.069 24.1958 72.069C22.1948 72.069 20.9873 70.965 20.9413 69.355Z"></path>
<path fill="#50000B" d="M27.4956 65.123V63.95H33.7861V65.123H31.3021V72H29.9796V65.123H27.4956Z"></path>
<path fill="#50000B" d="M34.7511 72V63.95H40.0066V65.123H36.0736V67.354H39.3166V68.4925H36.0736V70.827H40.1446V72H34.7511Z"></path>
<path fill="#50000B" d="M43.9681 72H41.2311V63.95H43.9681C46.4866 63.95 48.0736 65.5715 48.0736 67.9635C48.0736 70.3555 46.4866 72 43.9681 72ZM42.5536 65.1V70.85H43.9681C45.7391 70.85 46.7166 69.6885 46.7166 67.9635C46.7166 66.2385 45.7391 65.1 43.9681 65.1H42.5536Z"></path>
<rect stroke-width="0.8" stroke="#50000B" rx="6" height="79.2" width="54.2" y="0.4" x="1.1002"></rect>
<path stroke="#50000B" d="M29.0354 35.8442C28.8957 35.8983 28.7827 35.9401 28.7002 35.97C28.6177 35.9401 28.5047 35.8983 28.365 35.8442C28.045 35.7204 27.5857 35.5329 27.0335 35.2798C25.9278 34.773 24.4568 34.0066 22.9892 32.967C20.0368 30.8757 17.2002 27.7562 17.2002 23.5V10.8904L28.7002 8.01539L40.2002 10.8904V23.5C40.2002 27.7562 37.3636 30.8757 34.4112 32.967C32.9436 34.0066 31.4726 34.773 30.3669 35.2798C29.8147 35.5329 29.3554 35.7204 29.0354 35.8442Z"></path>
<path stroke="#50000B" d="M23.2002 21.5L27.2002 25.5L35.2002 16.1665"></path>
</g>
<defs>
<clipPath id="clip0_44_37212">
<rect transform="translate(0.700195)" fill="white" height="80" width="55"></rect>
</clipPath>
</defs>
</svg>
