<svg xmlns="http://www.w3.org/2000/svg" fill="none" viewBox="0 0 56 80" height="80" width="56">
<path fill="#50000B" d="M14.9566 59.7499V50.7899H16.3006L20.6654 57.1387V50.7899H22.1118V59.7499H20.7678L16.403 53.4011V59.7499H14.9566Z"></path>
<path fill="#50000B" d="M32.1025 55.2699C32.1025 56.1403 31.9191 56.9211 31.5521 57.6123C31.1852 58.3035 30.6689 58.8454 30.0033 59.2379C29.3463 59.6305 28.5953 59.8267 27.7505 59.8267C26.9057 59.8267 26.1505 59.6305 25.4849 59.2379C24.8279 58.8454 24.3159 58.3035 23.9489 57.6123C23.582 56.9211 23.3985 56.1403 23.3985 55.2699C23.3985 54.3995 23.582 53.6187 23.9489 52.9275C24.3159 52.2363 24.8279 51.6945 25.4849 51.3019C26.1505 50.9094 26.9057 50.7131 27.7505 50.7131C28.5953 50.7131 29.3463 50.9094 30.0033 51.3019C30.6689 51.6945 31.1852 52.2363 31.5521 52.9275C31.9191 53.6187 32.1025 54.3995 32.1025 55.2699ZM24.9089 55.2699C24.9089 55.8929 25.0284 56.4561 25.2673 56.9595C25.5063 57.4545 25.8391 57.8427 26.2657 58.1243C26.7009 58.3974 27.1959 58.5339 27.7505 58.5339C28.3052 58.5339 28.7959 58.3974 29.2225 58.1243C29.6577 57.8427 29.9948 57.4545 30.2337 56.9595C30.4727 56.4561 30.5921 55.8929 30.5921 55.2699C30.5921 54.647 30.4727 54.0881 30.2337 53.5931C29.9948 53.0897 29.6577 52.7014 29.2225 52.4283C28.7959 52.1467 28.3052 52.0059 27.7505 52.0059C27.1959 52.0059 26.7009 52.1467 26.2657 52.4283C25.8391 52.7014 25.5063 53.0897 25.2673 53.5931C25.0284 54.0881 24.9089 54.647 24.9089 55.2699Z"></path>
<path fill="#50000B" d="M33.3941 59.7499V50.7899H34.7381L39.1029 57.1387V50.7899H40.5493V59.7499H39.2053L34.8405 53.4011V59.7499H33.3941Z"></path>
<path fill="#50000B" d="M13.061 67.2699C13.061 66.3654 13.236 65.5718 13.5858 64.8891C13.9442 64.1979 14.452 63.6646 15.109 63.2891C15.7661 62.9051 16.5341 62.7131 17.413 62.7131C18.4456 62.7131 19.3032 62.9947 19.9858 63.5579C20.6685 64.1211 21.0866 64.8806 21.2402 65.8363H19.781C19.636 65.2646 19.3501 64.8166 18.9234 64.4923C18.5053 64.1681 17.989 64.0059 17.3746 64.0059C16.8114 64.0059 16.3165 64.1467 15.8898 64.4283C15.4717 64.7014 15.1474 65.0854 14.917 65.5803C14.6866 66.0667 14.5714 66.6299 14.5714 67.2699C14.5714 67.9099 14.6824 68.4774 14.9042 68.9723C15.1346 69.4587 15.4589 69.8427 15.877 70.1243C16.3037 70.3974 16.7986 70.5339 17.3618 70.5339C18.0786 70.5339 18.676 70.3377 19.1538 69.9451C19.6402 69.5526 19.9005 69.0065 19.9346 68.3067V68.0891H17.4514V66.8475H21.3426V71.7499H20.229L20.0754 70.4699C19.8194 70.8454 19.4525 71.1654 18.9746 71.4299C18.5053 71.6945 17.9464 71.8267 17.2978 71.8267C16.4701 71.8267 15.7362 71.639 15.0962 71.2635C14.4562 70.8795 13.957 70.3419 13.5986 69.6507C13.2402 68.9595 13.061 68.1659 13.061 67.2699Z"></path>
<path fill="#50000B" d="M22.9816 62.7899H24.8888L27.756 69.8427L30.572 62.7899H32.4408V71.7499H31.02V65.1579L28.332 71.7499H27.0904L24.4024 65.1579V71.7499H22.9816V62.7899Z"></path>
<path fill="#50000B" d="M42.44 67.2699C42.44 68.1403 42.2566 68.9211 41.8896 69.6123C41.5227 70.3035 41.0064 70.8454 40.3408 71.2379C39.6838 71.6305 38.9328 71.8267 38.088 71.8267C37.2432 71.8267 36.488 71.6305 35.8224 71.2379C35.1654 70.8454 34.6534 70.3035 34.2864 69.6123C33.9195 68.9211 33.736 68.1403 33.736 67.2699C33.736 66.3995 33.9195 65.6187 34.2864 64.9275C34.6534 64.2363 35.1654 63.6945 35.8224 63.3019C36.488 62.9094 37.2432 62.7131 38.088 62.7131C38.9328 62.7131 39.6838 62.9094 40.3408 63.3019C41.0064 63.6945 41.5227 64.2363 41.8896 64.9275C42.2566 65.6187 42.44 66.3995 42.44 67.2699ZM35.2464 67.2699C35.2464 67.8929 35.3659 68.4561 35.6048 68.9595C35.8438 69.4545 36.1766 69.8427 36.6032 70.1243C37.0384 70.3974 37.5334 70.5339 38.088 70.5339C38.6427 70.5339 39.1334 70.3974 39.56 70.1243C39.9952 69.8427 40.3323 69.4545 40.5712 68.9595C40.8102 68.4561 40.9296 67.8929 40.9296 67.2699C40.9296 66.647 40.8102 66.0881 40.5712 65.5931C40.3323 65.0897 39.9952 64.7014 39.56 64.4283C39.1334 64.1467 38.6427 64.0059 38.088 64.0059C37.5334 64.0059 37.0384 64.1467 36.6032 64.4283C36.1766 64.7014 35.8438 65.0897 35.6048 65.5931C35.3659 66.0881 35.2464 66.647 35.2464 67.2699Z"></path>
<rect stroke-width="0.8" stroke="#50000B" rx="6" height="79.2" width="54.2" y="0.4" x="1.1002"></rect>
<g clip-path="url(#clip0_2505_31335)">
<circle stroke="#50000B" r="15.625" cy="25.125" cx="28.3252"></circle>
<path stroke="#50000B" d="M13.3911 28.1111H43.2522"></path>
<path stroke="#50000B" d="M22.9484 28.1113L16.3789 34.6808"></path>
<path stroke="#50000B" d="M30.7109 28.1111L20.5581 38.2639"></path>
<path stroke="#50000B" d="M39.0729 28.1111L26.5312 40.6528"></path>
<path fill="#50000B" d="M35.5752 28.4123C36.0303 27.4101 36.2839 26.297 36.2839 25.1246C36.2839 20.7293 32.7208 17.1663 28.3255 17.1663C23.9303 17.1663 20.3672 20.7293 20.3672 25.1246C20.3672 26.2406 20.5969 27.3029 21.0116 28.2668C20.6571 28.2852 20.3053 28.3051 19.9564 28.3265C19.5757 27.3322 19.3672 26.2527 19.3672 25.1246C19.3672 20.177 23.378 16.1663 28.3255 16.1663C33.2731 16.1663 37.2839 20.177 37.2839 25.1246C37.2839 26.3168 37.0509 27.4547 36.6281 28.4951C36.2805 28.4659 35.9295 28.4383 35.5752 28.4123Z" clip-rule="evenodd" fill-rule="evenodd"></path>
</g>
<defs>
<clipPath id="clip0_2505_31335">
<rect fill="white" rx="16.125" height="32.25" width="32.25" y="9" x="12.2002"></rect>
</clipPath>
</defs>
</svg>
